0
SECTION
2
HEADER
9
$INSUNITS
70
4
9
$ACADVER
1
AC1014
9
$HANDSEED
5
FFFF
0
ENDSEC
0
SECTION
2
TABLES
0
TABLE
2
VPORT
5
8
100
AcDbSymbolTable
0
ENDTAB
0
TABLE
2
LTYPE
5
5
100
AcDbSymbolTable
0
LTYPE
5
14
100
AcDbSymbolTableRecord
100
AcDbLinetypeTableRecord
2
BYBLOCK
70
0
0
LTYPE
5
15
100
AcDbSymbolTableRecord
100
AcDbLinetypeTableRecord
2
BYLAYER
70
0
0
ENDTAB
0
TABLE
2
LAYER
5
2
100
AcDbSymbolTable
70
2
0
LAYER
5
50
100
AcDbSymbolTableRecord
100
AcDbLayerTableRecord
2
0
70
0
6
CONTINUOUS
0
ENDTAB
0
TABLE
2
STYLE
5
3
100
AcDbSymbolTable
70
1
0
STYLE
5
11
100
AcDbSymbolTableRecord
100
AcDbTextStyleTableRecord
2
STANDARD
70
0
0
ENDTAB
0
TABLE
2
VIEW
5
6
100
AcDbSymbolTable
70
0
0
ENDTAB
0
TABLE
2
UCS
5
7
100
AcDbSymbolTable
70
0
0
ENDTAB
0
TABLE
2
APPID
5
9
100
AcDbSymbolTable
70
2
0
APPID
5
12
100
AcDbSymbolTableRecord
100
AcDbRegAppTableRecord
2
ACAD
70
0
0
ENDTAB
0
TABLE
2
DIMSTYLE
5
A
100
AcDbSymbolTable
70
1
0
ENDTAB
0
TABLE
2
BLOCK_RECORD
5
1
100
AcDbSymbolTable
70
1
0
BLOCK_RECORD
5
1F
100
AcDbSymbolTableRecord
100
AcDbBlockTableRecord
2
*MODEL_SPACE
0
BLOCK_RECORD
5
1B
100
AcDbSymbolTableRecord
100
AcDbBlockTableRecord
2
*PAPER_SPACE
0
ENDTAB
0
ENDSEC
0
SECTION
2
BLOCKS
0
BLOCK
5
20
100
AcDbEntity
100
AcDbBlockBegin
2
*MODEL_SPACE
0
ENDBLK
5
21
100
AcDbEntity
100
AcDbBlockEnd
0
BLOCK
5
1C
100
AcDbEntity
100
AcDbBlockBegin
2
*PAPER_SPACE
0
ENDBLK
5
1D
100
AcDbEntity
100
AcDbBlockEnd
0
ENDSEC
0
SECTION
2
ENTITIES
0
LWPOLYLINE
5
100
100
AcDbEntity
8
0
100
AcDbPolyline
90
57
70
1
43
0.0
10
-31.203847577333637
20
25.980762113538326
42
0.76732698797896037
10
-32.703847577333633
20
20.38268590218501
10
-17.863724259396804
20
11.81473670976693
42
0.57735026919061161
10
-16.363724259392967
20
12.680762113550221
42
-0.99999999999999989
10
-13.763724259429853
20
12.680762113554591
42
-0.31390347129252016
10
-16.115287268368093
20
9.3041654424660507
42
-0.31390347129288265
10
-17.863724259393223
20
5.5793538025781597
42
-0.99999999999999989
10
-19.163724259373129
20
7.8310198523907282
42
0.57735026920340826
10
-19.16372425940272
20
9.5630706599775799
10
-34.003847577298593
20
18.131019852368773
42
0.76732698797892385
10
-38.101923788651682
20
14.032943641015329
10
-31.931862129709966
20
3.3460833619136778
42
-0.99999999999999989
10
-30.631862129706754
20
1.0944173120504346
10
-29.43186212972541
20
-0.98404365702108088
42
-0.99999999999999989
10
-28.131862129705169
20
-3.2357097068745038
10
-16.868137870303496
20
-22.745052406661507
42
-0.99999999999999989
10
-15.568137870267666
20
-24.996718456505924
10
-14.368137870283356
20
-27.07517942557573
42
-0.99999999999999989
10
-13.068137870266082
20
-29.326845475430861
10
-6.8980762113376652
20
-40.013705754527599
42
0.76732698797896015
10
-1.2999999999843437
20
-38.513705754527592
10
-1.299999999984337
20
-21.377807369721452
42
0.57735026919061139
10
-2.7999999999852583
20
-20.511781965933118
42
-0.99999999999999989
10
-4.0999999999706045
20
-18.260115916127702
42
-0.31390347129252016
10
-4.8416826103903077e-12
20
-18.608330884923724
42
-0.31390347129288271
10
4.0999999999626073
20
-18.260115916123965
42
-0.99999999999999989
10
2.7999999999759195
20
-20.51178196593262
42
0.57735026920340815
10
1.2999999999751535
20
-21.377807369751672
10
1.299999999977945
20
-38.513705754567972
42
0.76732698797892307
10
6.8980762113312553
20
-40.013705754567717
10
13.068137870244721
20
-29.32684547542069
42
-0.99999999999999989
10
14.368137870288782
20
-27.075179425581023
10
15.568137870263321
20
-24.996718456505569
42
-0.99999999999999989
10
16.868137870290365
20
-22.745052406656086
10
28.131862129716417
20
-3.2357097068831386
42
-0.99999999999999989
10
29.431862129727882
20
-0.98404365702464747
10
30.631862153424603
20
1.0944172983547875
42
-1.0000000105367122
10
31.931862129729467
20
3.3460833619002894
10
38.101923788670454
20
14.032943641018804
42
0.76732698797895982
10
34.003847577317146
20
18.131019852372123
10
19.163724259381134
20
9.5630706599545299
42
0.57735026919061028
10
19.16372425937822
20
7.8310198523829042
42
-0.99999999999999989
10
17.863724259400449
20
5.5793538025731184
42
-0.31390347129252066
10
16.115287268372924
20
9.3041654424576805
42
-0.31390347129288165
10
13.763724259430603
20
12.680762113545807
42
-0.99999999999999989
10
16.363724259397195
20
12.680762113541896
42
0.57735026920340382
10
17.86372425942756
20
11.814736709774099
10
32.703847577346608
20
20.382685902185138
42
0.76732698797892596
10
31.203847577346359
20
25.980762113538312
10
18.863724259452667
20
25.980762113499281
42
-0.99999999999999989
10
16.263724259430528
20
25.980762113538315
10
13.863724259449498
20
25.980762113518928
42
-0.99999999999999989
10
11.263724259427356
20
25.980762113538315
10
-11.263724259425508
20
25.980762113536912
42
-0.99999999999999989
10
-13.86372425944765
20
25.980762113538326
10
-16.263724259428681
20
25.980762113515489
42
-0.99999999999999989
10
-18.863724259450819
20
25.980762113538326
0
ENDSEC
0
SECTION
2
OBJECTS
0
DICTIONARY
5
C
100
AcDbDictionary
3
ACAD_GROUP
350
D
3
ACAD_MLINESTYLE
350
17
0
DICTIONARY
5
D
100
AcDbDictionary
0
DICTIONARY
5
1A
330
C
100
AcDbDictionary
0
DICTIONARY
5
17
100
AcDbDictionary
0
ENDSEC
0
EOF
